# xmcd
#
# Track frame offsets:
#	150
#	8592
#	17404
#	34203
#	43908
#	53038
#	67703
#	84131
#	99767
#	109237
#	121571
#	131831
#	140760
#
# Disc length: 1997 seconds
#
# Revision: 1
# Processed by: cddbd v1.5.2PL0 Copyright (c) Steve Scherf et al.
# Submitted via: audiograbber 1.83.01
#
DISCID=9807cb0d
DTITLE=Roger Everett - Just Fiddling Around
DYEAR=1900
DGENRE=Bluegrass
TTITLE0=No Data
TTITLE1=Billy In The Lowground
TTITLE2=Ashokan Farewell
TTITLE3=Whistlin' Rufus
TTITLE4=Georgia Cotton
TTITLE5=Faded Love
TTITLE6=High Country
TTITLE7=Kentucky Waltz
TTITLE8=Soppin' The Gravy
TTITLE9=Twinkle Little Star
TTITLE10=Maiden's Prayer
TTITLE11=Louisville Breakdown
TTITLE12=Two O'Clock In The Morning
EXTD=
EXTT0=
EXTT1=
EXTT2=
EXTT3=
EXTT4=
EXTT5=
EXTT6=
EXTT7=
EXTT8=
EXTT9=
EXTT10=
EXTT11=
EXTT12=
PLAYORDER=
